<svg id="Group_466" data-name="Group 466" xmlns="http://www.w3.org/2000/svg" width="15.086" height="21.875" viewBox="0 0 15.086 21.875">
  <path id="Path_1053" data-name="Path 1053" d="M12.042,12.043H8.27a.754.754,0,1,1,0-1.509h3.772a.754.754,0,1,1,0,1.509Zm3.772-3.017H8.27a.754.754,0,1,1,0-1.509h7.543a.754.754,0,1,1,0,1.509Zm0-3.017H8.27a.754.754,0,1,1,0-1.509h7.543a.754.754,0,1,1,0,1.509Z" transform="translate(-4.48 0.026)"/>
  <path id="Path_1054" data-name="Path 1054" d="M17.32,0H6.76A2.265,2.265,0,0,0,4.5,2.263V19.612A2.265,2.265,0,0,0,6.76,21.875H17.32a2.265,2.265,0,0,0,2.263-2.263V2.263A2.265,2.265,0,0,0,17.32,0Zm.754,18.56h0v1.052a.755.755,0,0,1-.754.754H6.76a.755.755,0,0,1-.754-.754V18.56H6V14.741h.006V2.263a.755.755,0,0,1,.754-.754H17.32a.755.755,0,0,1,.754.754V14.741h0Z" transform="translate(-4.497)"/>
  <path id="Path_1055" data-name="Path 1055" d="M15.814,4.5H8.27a.754.754,0,1,0,0,1.509h7.543a.754.754,0,1,0,0-1.509Z" transform="translate(-4.48 0.026)"/>
  <path id="Path_1056" data-name="Path 1056" d="M15.814,7.5H8.27a.754.754,0,1,0,0,1.509h7.543a.754.754,0,1,0,0-1.509Z" transform="translate(-4.48 0.043)"/>
  <path id="Path_1057" data-name="Path 1057" d="M12.042,10.5H8.27a.754.754,0,1,0,0,1.509h3.772a.754.754,0,1,0,0-1.509Z" transform="translate(-4.48 0.06)"/>
</svg>
